<?xml version="1.0" encoding="UTF-8"?>
<svg id="Layer_1" data-name="Layer 1" xmlns="http://www.w3.org/2000/svg" viewBox="0 0 1080 1080">
  <defs>
    <style>
      .cls-1 {
        fill: #fff;
        stroke-width: 0px;
      }
    </style>
  </defs>
  <path class="cls-1" d="m300.22,572.43h-.05c-3.53-4.41-7.16-8.69-10.87-12.87,3.76,4.18,7.39,8.5,10.92,12.87Z"/>
  <path class="cls-1" d="m315.78,490.55c-1.53-1.49-3.07-2.93-4.65-4.37,1.07.93,2.09,1.91,3.11,2.88.51.51,1.02.98,1.53,1.49Z"/>
  <path class="cls-1" d="m825.15,528.38c-2.09,1.81-4.18,3.67-6.23,5.53,2.04-1.91,4.09-3.76,6.18-5.58l.05.05Z"/>
  <g>
    <g>
      <path class="cls-1" d="m688.48,509.47h-290.82c.97-4.1,1.62-8.04,2.83-11.81,9.09-28.11,28.1-46.87,56.52-56.47,18.34-6.19,36.82-12.01,55.23-18.01,20.28-6.61,40.61-6.85,60.94-.28,20.15,6.51,40.5,12.51,60.32,19.88,29.78,11.07,47.66,32.64,54.56,62.95.24,1.05.25,2.14.42,3.72Z"/>
      <g>
        <path class="cls-1" d="m511.98,560.82v101.26c-15.43,1.12-30.76,3.07-45.87,5.86-11.25,2.04-22.35,4.51-33.32,7.44-5.67-18.12-12.64-35.97-20.82-53.4-3.67-7.81-7.57-15.52-11.76-23.19-.84-1.53-1.72-3.02-2.56-4.55v-33.41h114.32Z"/>
        <path class="cls-1" d="m692.61,591.63c-.05.09-.09.14-.14.23-2.6,4.6-5.16,9.2-7.57,13.89-1.44,2.79-2.88,5.58-4.28,8.41-1.49,2.93-2.93,6-4.37,9.11-2.97,6.32-5.9,13.01-8.74,20.08-.33.74-.6,1.53-.88,2.28-.88,2.09-1.67,4.18-2.46,6.23-2.09,5.39-4,10.73-5.72,15.85-.88,2.7-1.77,5.39-2.6,8.09-13.62-3.67-27.46-6.69-41.5-9.02-7.62-1.3-15.34-2.37-23.05-3.21-3.81-.88-7.57-1.58-11.43-1.81-.84-.05-6.37-.09-7.2-.14v-100.8h118.97c.33,10.27.65,20.54.98,30.81Z"/>
      </g>
    </g>
    <g>
      <path class="cls-1" d="m655.85,675.79c-.33.93-.6,1.86-.84,2.79-.19.51-.33.98-.46,1.49-.09.28-.19.56-.23.84-.74,2.46-1.49,4.97-2.18,7.44-.51,1.72-.98,3.44-1.44,5.11-.19.79-.42,1.58-.6,2.37-2.7,9.94-4.93,20.03-6.88,30.11-.93,5.07-1.77,10.13-2.56,15.24-26.07-7.16-53.21-11.39-80.81-12.22-38.15-1.21-75.66,4-111.3,14.82-3.02.93-6,1.86-8.97,2.83-2.51.84-5.07,1.77-7.67,2.7-.42.14-.84.28-1.21.42-5.11,1.86-10.22,3.81-15.24,5.95-1.02.37-2.04.84-3.07,1.25-1.53.65-3.07,1.3-4.55,2-.6.23-1.16.51-1.72.79-1.35.56-2.7,1.16-4.04,1.81-1.63.74-3.21,1.49-4.79,2.28-3.02,1.44-5.95,2.93-8.92,4.46-.93.46-1.81.93-2.74,1.44-2.09,1.07-4.18,2.18-6.23,3.35-102.28,56.6-151.03,149.27-171.29,196.16-9.25-7.16-18.91-15.1-28.81-23.93-10.36-9.25-19.75-18.4-28.21-27.19,15.06-33.41,41.68-81.65,87.6-128.54,0,0,59.53-60.78,128.35-90.99.42-.19.79-.37,1.21-.51.65-.28,1.53-.65,2.46-1.07.33-.14.65-.28.98-.42.98-.46,2-.84,2.97-1.25.56-.28,1.12-.51,1.72-.74.56-.28,1.16-.51,1.72-.74,3.25-1.35,6.55-2.7,9.85-3.95,4.88-1.91,9.76-3.67,14.73-5.34,2.7-.93,5.39-1.86,8.09-2.7.37-.14.79-.28,1.21-.42.42-.14.88-.28,1.35-.42,2-.65,4.04-1.25,6.09-1.86.65-.19,1.25-.37,1.91-.56.88-.28,1.77-.51,2.65-.79,2.04-.6,4.09-1.16,6.13-1.67.88-.28,1.81-.51,2.7-.74,10.97-2.93,22.07-5.39,33.32-7.44,15.1-2.79,30.44-4.74,45.87-5.86.84-.09,1.72-.14,2.56-.19,3.02-.19,6.04-.37,9.06-.51,5.2-.28,10.41-.42,15.61-.46,5.76-.05,11.53,0,17.29.19,3.86.09,7.67.28,11.52.51.84.05,1.72.09,2.56.14,6.92.42,13.85,1.02,20.73,1.81,7.71.84,15.43,1.91,23.05,3.21,14.03,2.32,27.88,5.34,41.5,9.02Z"/>
      <path class="cls-1" d="m430.7,749.73c-5.02,1.86-10.08,3.81-15.24,5.95,5.02-2.14,10.13-4.09,15.24-5.95Z"/>
      <path class="cls-1" d="m938.31,908.47c-7.25,7.62-14.96,15.43-23.24,23.24-11.11,10.6-22.03,20.26-32.62,29.14-11.2-28.3-32.39-71.71-71.8-114.69-36.71-40.01-74.87-64.08-100.98-77.84,1.67-23.28,5.62-46.47,11.94-69.06,31.88,14.55,77.79,40.01,123.48,83.37,48.52,46.01,77.14,93.64,93.22,125.85Z"/>
      <path class="cls-1" d="m432.79,675.37c-.88.23-1.81.46-2.7.74-2.04.51-4.09,1.07-6.13,1.67-.88.28-1.77.51-2.65.79-.65.19-1.25.37-1.91.56-2.04.6-4.09,1.21-6.09,1.86-.46.14-.93.28-1.35.42-.42.14-.84.28-1.21.42-2.7.84-5.39,1.77-8.09,2.7-4.97,1.67-9.85,3.44-14.73,5.34-3.3,1.25-6.6,2.56-9.85,3.95-.56.23-1.16.46-1.72.74-.6.23-1.16.46-1.72.74-.98.42-2,.79-2.97,1.25-.33.14-.65.28-.98.42-.84.33-1.67.7-2.46,1.07-.42.14-.79.33-1.21.51-8.83-31.46-22.07-61.9-39.87-90.29-7.3-11.76-15.34-22.96-23.98-33.55v-.05h.05c-3.53-4.37-7.16-8.69-10.92-12.87-11.2-12.59-23.33-24.3-36.2-35.04h-.05c-69.2-58.04-159.91-88.71-253.55-83.6,4.28-24.26,10.13-47.96,17.57-70.96,104.33.65,203.96,38.71,281.43,104.93,2.14,1.86,4.28,3.67,6.37,5.58,2.14,1.86,4.23,3.76,6.27,5.72,1.58,1.44,3.11,2.88,4.65,4.37,1.3,1.21,2.56,2.46,3.81,3.67,1.3,1.25,2.56,2.51,3.81,3.72,2.04,2,3.95,4,5.95,6.04v.05c3.81,3.95,7.53,7.95,11.15,12.08,2.04,2.23,4.04,4.51,5.99,6.78v.09c17.52,20.45,33.18,42.71,46.8,66.64.46.79.88,1.58,1.35,2.37.84,1.53,1.72,3.02,2.56,4.55,4.18,7.67,8.09,15.38,11.76,23.19,8.18,17.43,15.15,35.27,20.82,53.4Z"/>
      <path class="cls-1" d="m371.17,1061.88c-27.42-8.55-54.84-17.06-82.21-25.61,65.39-74.82,96.01-170.23,90.43-263.22,2.04-1.16,4.14-2.28,6.23-3.35.93-.51,1.81-.98,2.74-1.44,2.97-1.53,5.95-3.02,8.92-4.46,1.58-.79,3.16-1.53,4.79-2.28,1.35-.6,2.7-1.21,4.04-1.81.56-.28,1.12-.56,1.72-.79,1.49-.7,3.02-1.35,4.55-2,1.02-.42,2.04-.88,3.07-1.25,5.02-2.14,10.13-4.09,15.24-5.95.37-.14.79-.28,1.21-.42,2.56-.93,5.11-1.81,7.67-2.7,2.97-.98,5.95-1.91,8.97-2.83,16.08,109.95-10.18,224.5-77.38,318.1Z"/>
      <path class="cls-1" d="m1059.97,372.33c-103.49,2.7-201.83,42.2-277.9,109.39-4.23,3.72-8.41,7.53-12.5,11.43-2,1.91-4.04,3.86-6.04,5.9-2.04,2-4.04,4.04-5.99,6.04-3.95,4.04-7.85,8.23-11.62,12.45-3.81,4.23-7.48,8.55-11.11,12.97v.05c-15.66,18.91-29.79,39.32-42.2,61.06-.05.09-.09.14-.14.23-2.6,4.6-5.16,9.2-7.57,13.89-1.44,2.79-2.88,5.58-4.28,8.41-1.49,2.93-2.93,6-4.37,9.11-2.97,6.32-5.9,13.01-8.74,20.08-.33.74-.6,1.53-.88,2.28-.88,2.09-1.67,4.18-2.46,6.23-2.09,5.39-4,10.73-5.72,15.85-.88,2.7-1.77,5.39-2.6,8.09-.33.93-.6,1.86-.84,2.79-.19.51-.33.98-.46,1.49-.09.28-.19.56-.23.84-.74,2.46-1.49,4.97-2.18,7.44-.51,1.72-.98,3.44-1.44,5.11-.19.79-.42,1.58-.6,2.37-2.7,9.94-4.93,20.03-6.88,30.11-.93,5.07-1.77,10.13-2.56,15.24-16.54,108.56,8.18,221.76,72.96,315.03,26.3-8.83,51.68-19.56,76.03-32.16-59.39-74.12-86.48-166.14-79.98-255.73,1.67-23.28,5.62-46.47,11.94-69.06,8.74-31.74,22.12-62.41,40.01-90.99,6.32-10.04,13.06-19.7,20.26-28.95v-.05c6.97-8.92,14.31-17.43,22.03-25.56,3.9-4.04,7.81-7.95,11.85-11.85,2.04-1.95,4.09-3.86,6.18-5.72,2.04-1.91,4.09-3.76,6.18-5.58l.05.05c67.57-58.65,156.7-90.67,249.27-87.83-4.28-24.07-10.13-47.59-17.47-70.45Zm-241.05,161.58c2.04-1.91,4.09-3.76,6.18-5.58l.05.05c-2.09,1.81-4.18,3.67-6.23,5.53Z"/>
      <path class="cls-1" d="m825.15,528.38c-2.09,1.81-4.18,3.67-6.23,5.53,2.04-1.91,4.09-3.76,6.18-5.58l.05.05Z"/>
      <g>
        <path class="cls-1" d="m369.44,297.14c-1.99,23.41-6.25,46.53-12.78,69.15-30.76-14.6-75.06-39.99-118.86-82.78-46.24-45.19-73.3-91.59-88.5-123,8.6-8.84,18.01-17.96,28.28-27.19,9.38-8.43,18.58-16.16,27.49-23.24,10.78,27.39,30.83,68.65,67.64,109.92,34.98,39.23,71.54,63.24,96.74,77.15Z"/>
        <path class="cls-1" d="m641.32,324.13c3.69,23.13,9.32,45.97,16.82,68.3-35.79,9.94-73.18,15.34-111.36,15.74-42.73.45-84.55-5.45-124.49-16.99,7.1-21.36,12.5-43.18,16.14-65.23,28.24,8.35,57.67,13.24,87.73,14.2,39.6,1.25,78.41-4.38,115.17-16.02Z"/>
        <path class="cls-1" d="m934.59,161.54c-44.75,92.8-120.13,165.02-210.66,206.75v-.05c-7.16-24.21-11.71-49.07-13.62-74.22,71.94-40.94,130.21-106.88,161.35-188.86,22.4,17.1,43.45,35.97,62.92,56.37Z"/>
      </g>
      <path class="cls-1" d="m438.46,325.91v.05c-.14.88-.33,1.77-.51,2.65-.05.23-.09.51-.14.74-.37,2.09-.74,4.18-1.12,6.27-.42,2.28-.88,4.55-1.35,6.83-.98,4.79-2.04,9.62-3.21,14.41-.33,1.35-.65,2.7-1.02,4.04-.98,4-2.04,7.95-3.21,11.9-.42,1.49-.84,3.02-1.3,4.51-.46,1.58-.93,3.11-1.39,4.69-.93,3.02-1.95,6.09-2.93,9.11v.05c-10.87,32.9-25.84,64.73-44.8,94.8-8.64,13.71-17.98,26.72-27.98,39.18-1.95-2.28-3.95-4.55-5.99-6.78-3.62-4.14-7.34-8.13-11.15-12.08v-.05c-2-2.04-3.9-4.04-5.95-6.04v-.05c-1.25-1.25-2.51-2.51-3.81-3.67-1.25-1.3-2.51-2.51-3.81-3.72-.51-.51-1.02-.98-1.53-1.44-1.02-.98-2.04-1.95-3.11-2.93-2.04-1.95-4.14-3.86-6.27-5.72-2.09-1.91-4.23-3.72-6.37-5.58,2.6-3.44,5.16-7.02,7.67-10.6,21.42-31.09,37.27-64.92,47.49-100.19v-.05c1.02-3.53,2-7.06,2.88-10.6.56-2.18,1.07-4.37,1.63-6.55.51-2.18,1.02-4.37,1.49-6.55.14-.65.28-1.25.37-1.91.14-.56.28-1.16.37-1.72.19-.98.37-1.91.56-2.83.23-.98.42-1.95.56-2.88.14-.6.23-1.21.33-1.81.51-2.65.98-5.34,1.39-8.04.42-2.46.79-4.93,1.12-7.44v-.09c.14-.79.23-1.63.33-2.46.28-1.77.46-3.53.65-5.3.09-.51.14-1.02.19-1.53.09-.88.19-1.72.28-2.6.23-2.28.46-4.55.65-6.78v-.05c7.39-85.97-16.17-174.78-70.31-248.39,24.4-12.04,49.86-22.31,76.17-30.58,59.53,92.76,80.63,202.85,63.15,307.78Z"/>
      <path class="cls-1" d="m303.23,574.67h-.05v.05c-78.21,71.43-180.82,112.55-288.08,114.04-6.55-22.86-11.62-46.38-15.1-70.36,95.13,3.67,187.28-29.6,256.06-91.64h.05c12.87,10.73,25,22.45,36.2,35.04,3.76,4.18,7.39,8.5,10.92,12.87Z"/>
      <path class="cls-1" d="m782.07,481.72c-4.23,3.72-8.41,7.53-12.5,11.43-2,1.91-4.04,3.86-6.04,5.9-2,1.95-4.04,4-5.99,6.04-3.95,4.04-7.85,8.23-11.62,12.45-3.81,4.23-7.48,8.55-11.11,12.97-11.62-14.03-22.4-28.91-32.3-44.52-18.73-29.7-33.51-61.16-44.38-93.59-.93-2.79-1.86-5.58-2.7-8.41-.84-2.6-1.63-5.2-2.37-7.85-.19-.6-.37-1.16-.51-1.77-.74-2.42-1.39-4.83-2.04-7.3-.65-2.46-1.3-4.93-1.91-7.39-.56-2.23-1.07-4.41-1.58-6.65-.51-2.18-1.02-4.41-1.49-6.65-.51-2.18-.93-4.41-1.39-6.65-1.07-5.16-2-10.41-2.83-15.61v-.05c-16.96-104.33,4.28-213.72,63.43-305.97l76.21,30.62c-53.44,72.68-77.14,160.23-70.64,245.23v.05c1.91,25.14,6.46,50,13.62,74.22v.05c10.27,34.57,25.93,67.71,46.94,98.19,3.58,5.25,7.34,10.27,11.2,15.24Z"/>
      <path class="cls-1" d="m1080,618.35c-3.49,24.03-8.6,47.54-15.15,70.45-105.03-1.53-205.4-40.94-282.97-109.53,6.97-8.92,14.31-17.43,22.03-25.56,3.9-4.04,7.81-7.95,11.85-11.85,2.04-1.95,4.09-3.86,6.18-5.72,2.04-1.91,4.09-3.76,6.18-5.58l.05.05c68.36,59.48,158.7,91.36,251.83,87.74Z"/>
    </g>
  </g>
</svg>